<?xml version="1.0" encoding="utf-8"?>
<!-- Generator: Adobe Illustrator 26.0.2, SVG Export Plug-In . SVG Version: 6.00 Build 0)  -->
<svg version="1.1" id="Layer_1" xmlns="http://www.w3.org/2000/svg" xmlns:xlink="http://www.w3.org/1999/xlink" x="0px" y="0px"
	 viewBox="0 0 100 100" style="enable-background:new 0 0 100 100;" xml:space="preserve">
<style type="text/css">
	.st0{fill:#B5B6B6;stroke:#000000;stroke-miterlimit:10;}
	.st1{fill:#B5B6B6;stroke:#000000;stroke-width:1;stroke-miterlimit:10.0001;}
	.st2{fill:#519241;stroke:#000000;stroke-width:1;stroke-miterlimit:10.0001;}
	.st3{fill:#F4D151;stroke:#000000;stroke-miterlimit:10;}
</style>
<path class="st0" d="M66.7,78.6l-33.5,0.5c0,0-25.5-31.3-17.5-32.7c21.4-3.7,48-5.1,67.4-1.1C90.8,46.8,66.7,78.6,66.7,78.6z"/>
<ellipse transform="matrix(0.9999 -1.389832e-02 1.389832e-02 0.9999 -0.6341 0.6854)" class="st1" cx="49" cy="46" rx="34.9" ry="7"/>
<g id="Layer_1_00000114758525295722744360000000832665642803313832_">
</g>
<ellipse transform="matrix(0.9999 -1.484918e-02 1.484918e-02 0.9999 -1.1646 0.7511)" class="st1" cx="50" cy="78.8" rx="16.7" ry="2.1"/>
<ellipse transform="matrix(0.9999 -1.484917e-02 1.484917e-02 0.9999 -0.6227 0.7382)" class="st2" cx="49.4" cy="42.3" rx="32.8" ry="7"/>
<ellipse transform="matrix(0.9999 -1.484917e-02 1.484917e-02 0.9999 -0.5945 0.7365)" class="st2" cx="49.3" cy="40.4" rx="32.8" ry="7"/>
<path class="st3" d="M58.4,39.6H37.8c-0.4,0-0.7-0.5-0.7-1v-8.3c0-0.6,0.3-1,0.7-1h20.6c0.4,0,0.7,0.5,0.7,1v8.3
	C59.2,39.1,58.9,39.6,58.4,39.6z"/>
</svg>
