<?xml version="1.0" encoding="UTF-8"?><svg xmlns="http://www.w3.org/2000/svg" viewBox="0 0 302.87 76.1"><defs><style>.cls-1{isolation:isolate;}.cls-1,.cls-2,.cls-3,.cls-4,.cls-5,.cls-6{fill:none;}.cls-7{fill:#fff;}.cls-2{stroke:#ea6a3f;}.cls-2,.cls-3,.cls-4,.cls-5,.cls-6{mix-blend-mode:multiply;stroke-linecap:round;stroke-miterlimit:10;stroke-width:3.59px;}.cls-3{stroke:#fbd026;}.cls-4{stroke:#d6aacd;}.cls-5{stroke:#2fb6df;}.cls-6{stroke:#b5b5b6;}</style></defs><g class="cls-1"><g id="ShuttleDrive"><path class="cls-7" d="m97.67,51.93c-1.62,0-2.91-.36-3.87-1.08-.96-.72-1.62-1.7-1.98-2.95-.36-1.24-.48-2.66-.36-4.25.03-.3.14-.45.32-.45h2.25c.24,0,.34.15.31.45-.21,1.83,0,3.19.61,4.09.61.9,1.57,1.35,2.86,1.35,1.17,0,2.05-.35,2.63-1.06s.88-1.81.88-3.31c0-1.32-.18-2.41-.54-3.26-.36-.86-.99-1.61-1.89-2.27l-3.65-2.88c-1.23-.96-2.14-2.05-2.72-3.26s-.88-2.68-.88-4.39c.03-2.13.58-3.79,1.64-4.97,1.06-1.19,2.54-1.78,4.43-1.78,2.22,0,3.85.72,4.88,2.16s1.43,3.41,1.19,5.9c0,.33-.11.5-.31.5h-2.29c-.21,0-.3-.16-.27-.5.18-1.68-.02-2.97-.58-3.87-.57-.9-1.42-1.35-2.56-1.35-.96,0-1.73.31-2.3.95-.57.63-.87,1.59-.9,2.88,0,1.2.21,2.22.63,3.06.42.84,1.06,1.6,1.93,2.29l3.51,2.75c.87.66,1.57,1.36,2.09,2.09.52.74.91,1.57,1.15,2.52.24.94.36,2.05.36,3.31,0,2.28-.53,4.07-1.6,5.38-1.07,1.3-2.72,1.96-4.97,1.96Z"/><path class="cls-7" d="m107.88,51.66c-.21,0-.31-.13-.31-.41v-29.92c0-.27.1-.4.31-.4h2.29c.21,0,.32.13.32.4v29.92c0,.27-.11.41-.32.41h-2.29Zm8.55,0c-.21,0-.31-.13-.31-.41v-16.06c0-.99-.15-1.72-.45-2.18-.3-.46-.78-.7-1.44-.7-.6,0-1.24.25-1.91.74s-1.39,1.22-2.14,2.18l-.22-2.43c.87-1.08,1.73-1.9,2.59-2.45.85-.55,1.78-.83,2.77-.83,1.23,0,2.16.45,2.79,1.35.63.9.95,2.28.95,4.14v16.24c0,.27-.11.41-.31.41h-2.3Z"/><path class="cls-7" d="m126.92,51.93c-1.38,0-2.35-.44-2.9-1.33-.56-.88-.83-2.27-.83-4.16v-16.24c0-.27.1-.41.31-.41h2.29c.21,0,.32.14.32.41v16.2c0,1.08.13,1.8.38,2.16.25.36.67.54,1.24.54.78,0,1.52-.3,2.23-.9.7-.6,1.39-1.41,2.05-2.43l.27,2.52c-.78,1.05-1.62,1.92-2.52,2.61-.9.69-1.84,1.03-2.83,1.03Zm5.27-.27c-.18,0-.3-.13-.36-.41-.06-.63-.11-1.37-.16-2.23-.04-.85-.07-1.49-.07-1.91l-.23-.27v-16.65c0-.27.12-.41.36-.41h2.25c.21,0,.31.14.31.41v16.06c0,1.26.02,2.29.05,3.08.03.79.06,1.4.09,1.82.03.33-.06.5-.27.5h-1.98Z"/><path class="cls-7" d="m143.7,51.93c-1.53,0-2.62-.46-3.29-1.39-.66-.93-.99-2.49-.99-4.68v-13.27h-1.93c-.24,0-.36-.12-.36-.36v-2.02c0-.27.12-.41.36-.41h2.03l.36-5.49c.03-.24.15-.36.36-.36h1.84c.18,0,.27.12.27.36v5.49h4.05c.24,0,.36.14.36.41v2.02c0,.24-.12.36-.36.36h-4.05v13.19c0,1.23.15,2.1.45,2.61.3.51.81.77,1.53.77.39,0,.77-.05,1.12-.14.36-.09.69-.19.99-.31.24-.09.36-.01.36.22v2.07c0,.27-.11.43-.32.5-.39.12-.83.22-1.3.31-.48.09-.98.13-1.49.13Z"/><path class="cls-7" d="m155.04,51.93c-1.53,0-2.62-.46-3.29-1.39-.66-.93-.99-2.49-.99-4.68v-13.27h-1.93c-.24,0-.36-.12-.36-.36v-2.02c0-.27.12-.41.36-.41h2.03l.36-5.49c.03-.24.15-.36.36-.36h1.84c.18,0,.27.12.27.36v5.49h4.05c.24,0,.36.14.36.41v2.02c0,.24-.12.36-.36.36h-4.05v13.19c0,1.23.15,2.1.45,2.61.3.51.81.77,1.53.77.39,0,.77-.05,1.12-.14.36-.09.69-.19.99-.31.24-.09.36-.01.36.22v2.07c0,.27-.11.43-.32.5-.39.12-.83.22-1.3.31-.48.09-.98.13-1.49.13Z"/><path class="cls-7" d="m161.47,51.66c-.21,0-.31-.13-.31-.41v-29.92c0-.27.1-.4.31-.4h2.29c.21,0,.32.13.32.4v29.92c0,.27-.11.41-.32.41h-2.29Z"/><path class="cls-7" d="m173.76,51.93c-2.01,0-3.5-.63-4.46-1.89-.96-1.26-1.44-3.21-1.44-5.85v-7.51c0-2.49.48-4.3,1.44-5.45.96-1.14,2.38-1.71,4.27-1.71s3.28.59,4.25,1.78c.97,1.19,1.46,2.95,1.46,5.29v4.45c0,.24-.11.36-.31.36h-8.19v2.75c0,1.74.23,3,.7,3.78.46.78,1.22,1.17,2.27,1.17.9,0,1.56-.25,1.98-.74.42-.5.6-1.24.54-2.23-.06-.3.03-.45.27-.45h2.16c.21,0,.32.12.32.36.06,1.89-.37,3.35-1.28,4.37-.92,1.02-2.24,1.53-3.98,1.53Zm-2.97-13.27h5.58v-2.02c0-1.53-.22-2.63-.65-3.31-.44-.68-1.15-1.01-2.14-1.01s-1.67.35-2.12,1.04c-.45.69-.67,1.79-.67,3.29v2.02Z"/><path class="cls-7" d="m183.62,51.66c-.27,0-.41-.13-.41-.41v-28.66c0-.27.12-.41.36-.41h4.41c3.09,0,5.38.97,6.86,2.9,1.48,1.93,2.23,4.91,2.23,8.93v4.46c0,4.47-.72,7.78-2.16,9.94s-3.67,3.24-6.71,3.24h-4.59Zm2.52-2.83h1.85c2.22,0,3.8-.8,4.75-2.41s1.42-4.18,1.42-7.72v-4.77c0-3.09-.5-5.35-1.49-6.77-.99-1.42-2.6-2.14-4.82-2.14h-1.71v23.8Z"/><path class="cls-7" d="m201.16,51.66c-.21,0-.31-.13-.31-.41v-16.06c0-1.26,0-2.29-.02-3.08-.02-.79-.05-1.4-.11-1.82-.03-.33.06-.5.27-.5h2.07c.15,0,.24.14.27.41.06.6.12,1.33.18,2.18s.09,1.51.09,1.96l.18.27v16.65c0,.27-.11.41-.32.41h-2.29Zm2.34-15.84l-.18-2.83c.36-.57.77-1.12,1.24-1.64.46-.52.97-.96,1.53-1.31.55-.34,1.15-.52,1.78-.52.27,0,.5.02.67.04.12.03.2.09.25.18s.07.21.07.36c0,.51,0,.99-.02,1.44-.02.45-.05.93-.11,1.44-.03.21-.14.3-.32.27-.15-.06-.31-.1-.47-.11-.17-.01-.35-.02-.56-.02-.63,0-1.3.24-2.02.72-.72.48-1.34,1.14-1.85,1.98Z"/><path class="cls-7" d="m213.22,25.78c-.66,0-1.16-.16-1.48-.5-.33-.33-.5-.81-.5-1.44v-.4c0-.63.16-1.12.5-1.46.33-.34.82-.52,1.48-.52s1.15.17,1.46.52c.31.35.47.83.47,1.46v.4c0,.63-.16,1.11-.47,1.44-.32.33-.8.5-1.46.5Zm-1.17,25.87c-.21,0-.31-.13-.31-.41v-21.06c0-.27.1-.41.31-.41h2.29c.21,0,.32.14.32.41v21.06c0,.27-.11.41-.32.41h-2.29Z"/><path class="cls-7" d="m222.36,51.66c-.15,0-.25-.1-.32-.32l-4.41-21.1c-.06-.3.01-.45.22-.45h2.52c.21,0,.33.11.36.31l2.21,12.6c.18.96.34,1.93.5,2.9.15.98.29,1.94.41,2.9h.09c.09-.96.21-1.93.36-2.92s.32-1.96.5-2.92l2.34-12.55c.03-.21.14-.31.32-.31h2.52c.21,0,.27.17.18.5l-4.37,21.06c-.03.21-.17.32-.41.32h-3.01Z"/><path class="cls-7" d="m238.38,51.93c-2.01,0-3.5-.63-4.46-1.89-.96-1.26-1.44-3.21-1.44-5.85v-7.51c0-2.49.48-4.3,1.44-5.45.96-1.14,2.38-1.71,4.27-1.71s3.28.59,4.25,1.78c.97,1.19,1.46,2.95,1.46,5.29v4.45c0,.24-.11.36-.31.36h-8.19v2.75c0,1.74.23,3,.7,3.78.46.78,1.22,1.17,2.27,1.17.9,0,1.56-.25,1.98-.74.42-.5.6-1.24.54-2.23-.06-.3.03-.45.27-.45h2.16c.21,0,.32.12.32.36.06,1.89-.37,3.35-1.28,4.37-.92,1.02-2.24,1.53-3.98,1.53Zm-2.97-13.27h5.58v-2.02c0-1.53-.22-2.63-.65-3.31-.44-.68-1.15-1.01-2.14-1.01s-1.67.35-2.12,1.04c-.45.69-.67,1.79-.67,3.29v2.02Z"/></g><g id="Circle"><circle class="cls-7" cx="38" cy="38" r="33.8"/></g><g id="Logo"><line class="cls-5" x1="48.8" y1="10" x2="57.1" y2="59.7"/><line class="cls-5" x1="28.2" y1="21" x2="57.1" y2="59.7"/><line class="cls-4" x1="9.1" y1="40.5" x2="28.2" y2="21"/><line class="cls-6" x1="9.1" y1="40.5" x2="57.1" y2="59.7"/><line class="cls-5" x1="57.1" y1="59.7" x2="62.4" y2="44.9"/><line class="cls-2" x1="28.2" y1="21" x2="62.4" y2="44.9"/><line class="cls-6" x1="9.1" y1="40.5" x2="62.4" y2="44.9"/><line class="cls-3" x1="48.8" y1="10" x2="62.4" y2="44.9"/></g></g></svg>